<svg width="400" height="400" viewBox="0 0 400 400" fill="none" xmlns="http://www.w3.org/2000/svg">
<rect width="400" height="400" fill="#0F5B6B"/>
<rect x="175" y="75" width="25" height="25" fill="#F4B688"/>
<rect x="200" y="75" width="25" height="25" fill="#F4B688"/>
<rect x="100" y="150" width="25" height="25" fill="#F4B688"/>
<rect x="100" y="125" width="25" height="25" fill="#F4B688"/>
<rect x="125" y="100" width="25" height="25" fill="#F4B688"/>
<rect x="150" y="100" width="25" height="25" fill="#F4B688"/>
<rect x="175" y="125" width="25" height="25" fill="#F4B688"/>
<rect x="175" y="150" width="25" height="25" fill="#F4B688"/>
<rect x="200" y="100" width="25" height="25" fill="#F4B688"/>
<rect x="225" y="100" width="25" height="25" fill="#F4B688"/>
<rect x="250" y="125" width="25" height="25" fill="#F4B688"/>
<rect x="250" y="150" width="25" height="25" fill="#F4B688"/>
<rect x="175" y="100" width="25" height="25" fill="#F4B688"/>
<rect x="100" y="200" width="25" height="25" fill="#F4B688"/>
<rect x="125" y="225" width="25" height="25" fill="#F4B688"/>
<rect x="225" y="200" width="25" height="25" fill="#F4B688"/>
<rect x="250" y="200" width="25" height="25" fill="#F4B688"/>
<rect x="125" y="200" width="25" height="25" fill="#F4B688"/>
<rect x="150" y="75" width="25" height="25" fill="#F4B688"/>
<rect x="125" y="175" width="25" height="25" fill="#F4B688"/>
<rect x="150" y="175" width="25" height="25" fill="#F4B688"/>
<rect x="175" y="175" width="25" height="25" fill="#F4B688"/>
<rect x="200" y="175" width="25" height="25" fill="#F4B688"/>
<rect x="225" y="175" width="25" height="25" fill="#F4B688"/>
<rect x="250" y="175" width="25" height="25" fill="#F4B688"/>
<rect x="100" y="175" width="25" height="25" fill="#F4B688"/>
<rect x="150" y="225" width="25" height="25" fill="#F4B688"/>
<rect x="200" y="225" width="25" height="25" fill="#F4B688"/>
<rect x="225" y="225" width="25" height="25" fill="#F4B688"/>
<rect x="250" y="350" width="25" height="25" fill="black"/>
<rect x="75" y="300" width="25" height="25" fill="black"/>
<rect x="100" y="300" width="25" height="25" fill="black"/>
<rect x="125" y="300" width="25" height="25" fill="black"/>
<rect x="150" y="275" width="25" height="25" fill="black"/>
<rect x="175" y="275" width="25" height="25" fill="#F4B688"/>
<rect x="175" y="225" width="25" height="25" fill="#753100"/>
<rect x="150" y="200" width="25" height="25" fill="#753100"/>
<rect x="175" y="200" width="25" height="25" fill="#753100"/>
<rect x="200" y="200" width="25" height="25" fill="#753100"/>
<rect x="175" y="250" width="25" height="25" fill="#F4B688"/>
<rect x="200" y="250" width="25" height="25" fill="#F4B688"/>
<rect x="150" y="250" width="25" height="25" fill="#F4B688"/>
<rect x="275" y="125" width="25" height="25" fill="#0AA5FB"/>
<rect x="325" y="150" width="25" height="25" fill="#0AA5FB"/>
<rect x="300" y="150" width="25" height="25" fill="#0AA5FB"/>
<rect x="300" y="175" width="25" height="25" fill="#0AA5FB"/>
<rect x="300" y="125" width="25" height="25" fill="#0AA5FB"/>
<rect x="275" y="150" width="25" height="25" fill="#0AA5FB"/>
<rect x="275" y="175" width="25" height="25" fill="#0AA5FB"/>
<rect x="75" y="125" width="25" height="25" fill="#0AA5FB"/>
<rect x="75" y="150" width="25" height="25" fill="#0AA5FB"/>
<rect x="75" y="175" width="25" height="25" fill="#0AA5FB"/>
<rect x="50" y="125" width="25" height="25" fill="#0AA5FB"/>
<rect x="50" y="150" width="25" height="25" fill="#0AA5FB"/>
<rect x="50" y="175" width="25" height="25" fill="#0AA5FB"/>
<rect x="25" y="150" width="25" height="25" fill="#0AA5FB"/>
<rect x="75" y="250" width="25" height="25" fill="#0AA5FB"/>
<rect x="100" y="100" width="25" height="25" fill="#0AA5FB"/>
<rect x="125" y="75" width="25" height="25" fill="#0AA5FB"/>
<rect x="150" y="50" width="25" height="25" fill="#0AA5FB"/>
<rect x="175" y="50" width="25" height="25" fill="#0AA5FB"/>
<rect x="200" y="50" width="25" height="25" fill="#0AA5FB"/>
<rect x="150" y="25" width="25" height="25" fill="#0AA5FB"/>
<rect x="175" y="25" width="25" height="25" fill="#0AA5FB"/>
<rect x="200" y="25" width="25" height="25" fill="#0AA5FB"/>
<rect x="175" width="25" height="25" fill="#0AA5FB"/>
<rect x="250" y="100" width="25" height="25" fill="#0AA5FB"/>
<rect x="225" y="75" width="25" height="25" fill="#0AA5FB"/>
<rect x="100" y="75" width="25" height="25" fill="#0AA5FB"/>
<rect x="250" y="75" width="25" height="25" fill="#0AA5FB"/>
<rect x="275" y="75" width="25" height="25" fill="#0AA5FB"/>
<rect x="275" y="50" width="25" height="25" fill="#0AA5FB"/>
<rect x="75" y="75" width="25" height="25" fill="#0AA5FB"/>
<rect x="75" y="50" width="25" height="25" fill="#0AA5FB"/>
<rect x="275" y="250" width="25" height="25" fill="#0AA5FB"/>
<rect x="100" y="225" width="25" height="25" fill="#0AA5FB"/>
<rect x="250" y="225" width="25" height="25" fill="#0AA5FB"/>
<rect x="200" y="275" width="25" height="25" fill="black"/>
<rect x="225" y="300" width="25" height="25" fill="black"/>
<rect x="250" y="300" width="25" height="25" fill="black"/>
<rect x="275" y="300" width="25" height="25" fill="black"/>
<rect x="300" y="300" width="25" height="25" fill="black"/>
<rect x="300" y="325" width="25" height="25" fill="black"/>
<rect x="325" y="325" width="25" height="25" fill="black"/>
<rect x="350" y="325" width="25" height="25" fill="black"/>
<rect x="350" y="300" width="25" height="25" fill="black"/>
<rect x="350" y="275" width="25" height="25" fill="black"/>
<rect x="375" y="275" width="25" height="25" fill="black"/>
<rect x="350" y="250" width="25" height="25" fill="black"/>
<rect x="350" y="225" width="25" height="25" fill="black"/>
<rect x="375" y="203" width="25" height="25" fill="black"/>
<rect x="375" y="178" width="25" height="25" fill="black"/>
<rect x="375" y="225" width="25" height="25" fill="black"/>
<rect x="225" y="325" width="25" height="25" fill="black"/>
<rect x="175" y="300" width="25" height="25" fill="black"/>
<rect x="125" y="325" width="25" height="25" fill="black"/>
<rect x="125" y="350" width="25" height="25" fill="white"/>
<rect x="150" y="300" width="25" height="25" fill="white"/>
<rect x="175" y="325" width="25" height="25" fill="white"/>
<rect x="200" y="300" width="25" height="25" fill="white"/>
<rect x="225" y="350" width="25" height="25" fill="white"/>
<rect x="225" y="375" width="25" height="25" fill="white"/>
<rect x="250" y="325" width="25" height="25" fill="white"/>
<rect x="275" y="325" width="25" height="25" fill="white"/>
<rect x="275" y="350" width="25" height="25" fill="white"/>
<rect x="275" y="375" width="25" height="25" fill="white"/>
<rect x="300" y="350" width="25" height="25" fill="white"/>
<rect x="300" y="375" width="25" height="25" fill="white"/>
<rect x="325" y="350" width="25" height="25" fill="white"/>
<rect x="325" y="375" width="25" height="25" fill="white"/>
<rect x="350" y="350" width="25" height="25" fill="white"/>
<rect x="375" y="300" width="25" height="25" fill="white"/>
<rect x="375" y="325" width="25" height="25" fill="white"/>
<rect x="375" y="350" width="25" height="25" fill="white"/>
<rect x="375" y="375" width="25" height="25" fill="white"/>
<rect x="375" y="250" width="25" height="25" fill="white"/>
<rect x="200" y="150" width="25" height="25" fill="white"/>
<rect x="225" y="150" width="25" height="25" fill="white"/>
<rect x="225" y="125" width="25" height="25" fill="white"/>
<rect x="200" y="125" width="25" height="25" fill="white"/>
<rect x="150" y="125" width="25" height="25" fill="white"/>
<rect x="150" y="150" width="25" height="25" fill="white"/>
<rect x="125" y="125" width="25" height="25" fill="white"/>
<rect x="125" y="150" width="25" height="25" fill="white"/>
<rect x="350" y="375" width="25" height="25" fill="white"/>
<rect x="125" y="375" width="25" height="25" fill="white"/>
<rect x="100" y="325" width="25" height="25" fill="white"/>
<rect x="75" y="325" width="25" height="25" fill="white"/>
<rect x="75" y="350" width="25" height="25" fill="white"/>
<rect x="50" y="350" width="25" height="25" fill="white"/>
<rect x="75" y="375" width="25" height="25" fill="white"/>
<rect x="50" y="375" width="25" height="25" fill="white"/>
<rect x="25" y="375" width="25" height="25" fill="white"/>
<rect x="100" y="350" width="25" height="25" fill="black"/>
<rect x="100" y="375" width="25" height="25" fill="black"/>
<rect x="250" y="375" width="25" height="25" fill="black"/>
<rect x="150" y="375" width="25" height="25" fill="#0AA5FB"/>
<rect x="150" y="350" width="25" height="25" fill="#0AA5FB"/>
<rect x="175" y="375" width="25" height="25" fill="#0AA5FB"/>
<rect x="175" y="350" width="25" height="25" fill="#0AA5FB"/>
<rect x="150" y="325" width="25" height="25" fill="#0AA5FB"/>
<rect x="200" y="375" width="25" height="25" fill="#0AA5FB"/>
<rect x="200" y="350" width="25" height="25" fill="#0AA5FB"/>
<rect x="200" y="325" width="25" height="25" fill="#0AA5FB"/>
<rect x="200" y="325" width="25" height="25" fill="#0AA5FB"/>
<rect x="25" y="350" width="25" height="25" fill="black"/>
<rect x="50" y="325" width="25" height="25" fill="black"/>
<rect y="375" width="25" height="25" fill="black"/>
</svg>
