<?xml version="1.0" standalone="no"?>
<!DOCTYPE svg PUBLIC "-//W3C//DTD SVG 20010904//EN"
 "http://www.w3.org/TR/2001/REC-SVG-20010904/DTD/svg10.dtd">
<svg version="1.0" xmlns="http://www.w3.org/2000/svg"
 width="700.000000pt" height="700.000000pt" viewBox="0 0 700.000000 700.000000"
 preserveAspectRatio="xMidYMid meet">
<metadata>
Created by potrace 1.14, written by Peter Selinger 2001-2017
</metadata>
<g transform="translate(0.000000,700.000000) scale(0.100000,-0.100000)"
fill="#000000" stroke="none">
<path d="M682 6480 c-110 -16 -212 -92 -264 -198 l-23 -47 0 -1090 0 -1090 23
-47 c54 -110 152 -181 273 -198 87 -13 1985 -12 2072 0 37 6 86 19 109 31 66
34 133 103 164 172 l29 62 0 1070 0 1070 -29 62 c-31 69 -98 138 -164 172 -23
12 -72 25 -109 31 -80 11 -2001 11 -2081 0z m1290 -374 c311 -79 571 -312 683
-614 106 -284 77 -599 -81 -864 -60 -101 -201 -246 -302 -313 -497 -325 -1171
-141 -1433 390 -75 153 -101 268 -101 440 0 119 4 155 26 240 101 388 417 677
811 741 112 19 278 10 397 -20z"/>
<path d="M1676 5878 c-13 -13 -49 -79 -79 -148 -94 -215 -106 -237 -135 -249
-15 -5 -101 -17 -192 -26 -91 -9 -182 -20 -202 -26 -44 -11 -72 -54 -62 -93 3
-15 65 -79 150 -156 79 -72 151 -142 160 -155 15 -23 13 -37 -25 -217 -23
-106 -41 -203 -41 -216 0 -32 43 -72 77 -72 17 0 96 39 203 100 96 55 185 100
198 100 13 0 101 -45 197 -100 186 -108 216 -117 253 -77 30 31 28 57 -13 253
-19 91 -35 181 -35 199 0 30 13 45 140 160 77 69 149 138 160 152 26 33 25 66
-2 98 -22 25 -33 27 -231 49 -172 19 -212 26 -227 42 -10 10 -55 100 -99 199
-45 99 -89 186 -98 193 -26 19 -69 14 -97 -10z"/>
<path d="M4234 6480 c-119 -18 -220 -94 -271 -204 l-28 -61 0 -1070 0 -1070
29 -63 c36 -78 113 -151 194 -184 l57 -23 1060 0 1060 0 60 24 c71 29 150 103
185 176 l25 50 0 1090 0 1090 -25 50 c-35 73 -114 147 -185 176 l-60 24 -1025
1 c-564 1 -1048 -2 -1076 -6z m1186 -355 c323 -49 598 -249 741 -540 75 -152
101 -268 101 -440 0 -119 -4 -155 -26 -240 -54 -207 -181 -406 -340 -532 -579
-458 -1414 -167 -1593 555 -23 93 -23 341 0 434 113 457 498 767 962 777 33 0
103 -6 155 -14z"/>
<path d="M4570 5363 c-48 -33 -49 -39 -50 -219 l0 -171 26 -26 c14 -15 40 -29
58 -32 17 -3 332 -5 699 -3 l669 3 29 33 29 32 0 165 0 165 -29 32 -29 33
-689 3 c-638 2 -690 1 -713 -15z"/>
<path d="M3405 3231 c-22 -10 -54 -34 -72 -52 -29 -32 -248 -414 -299 -524
-29 -62 -31 -143 -5 -201 22 -49 92 -111 140 -124 47 -13 615 -13 662 0 48 13
118 75 140 124 26 58 24 139 -5 201 -51 110 -270 492 -299 524 -44 46 -101 71
-167 71 -33 0 -71 -8 -95 -19z"/>
<path d="M1456 1604 c-24 -23 -24 -525 0 -548 13 -14 52 -16 270 -16 241 0
255 1 274 20 19 19 20 33 20 270 0 237 -1 251 -20 270 -19 19 -33 20 -274 20
-218 0 -257 -2 -270 -16z"/>
<path d="M2340 1600 c-19 -19 -20 -33 -20 -270 0 -237 1 -251 20 -270 19 -19
33 -20 274 -20 218 0 257 2 270 16 24 23 24 525 0 548 -13 14 -52 16 -270 16
-241 0 -255 -1 -274 -20z"/>
<path d="M3227 1602 c-15 -16 -17 -50 -17 -274 0 -234 1 -256 18 -271 16 -15
50 -17 274 -17 234 0 256 1 271 18 15 16 17 50 17 274 0 234 -1 256 -18 271
-16 15 -50 17 -274 17 -234 0 -256 -1 -271 -18z"/>
<path d="M4116 1604 c-14 -13 -16 -52 -16 -274 0 -222 2 -261 16 -274 13 -14
52 -16 270 -16 241 0 255 1 274 20 19 19 20 33 20 270 0 237 -1 251 -20 270
-19 19 -33 20 -274 20 -218 0 -257 -2 -270 -16z"/>
<path d="M5000 1600 c-19 -19 -20 -33 -20 -270 0 -237 1 -251 20 -270 19 -19
33 -20 274 -20 218 0 257 2 270 16 24 23 24 525 0 548 -13 14 -52 16 -270 16
-241 0 -255 -1 -274 -20z"/>
</g>
</svg>
